<?xml version="1.0" encoding="UTF-8" standalone="no"?>
<svg
   id="svg1"
   version="1.1"
   xmlns="http://www.w3.org/2000/svg"
   xmlns:svg="http://www.w3.org/2000/svg"
   height="16"
   width="16">
  <defs
     id="defs1">
    <style
       id="current-color-scheme"
       type="text/css">
      .ColorScheme-Text{color:#333333}
    </style>
  </defs>
  <g
     id="g1">
    <path
       id="path1"
       d="M 3,1 C 1.892,1 1,1.892 1,3 v 10 c 0,1.108 0.892,2 2,2 h 10 c 1.108,0 2,-0.892 2,-2 V 3 C 15,1.892 14.108,1 13,1 Z M 4,4 H 6 V 6 H 4 Z m 6,0 h 2 V 6 H 10 Z M 4,7 H 6 V 9 H 4 Z M 7,7 H 9 V 9 H 7 Z m 3,0 h 2 v 2 h -2 z m -6,3 h 2 v 2 H 4 Z m 6,0 h 2 v 2 h -2 z"
       class="ColorScheme-Text"
       fill="currentColor"
       opacity="0.9" />
    <rect
       id="rect1"
       width="2"
       height="2"
       x="4"
       y="4"
       fill="#68b723"
       opacity="0.75" />
    <rect
       id="rect2"
       width="2"
       height="2"
       x="4"
       y="7"
       fill="#68b723"
       opacity="0.75" />
    <rect
       id="rect3"
       width="2"
       height="2"
       x="4"
       y="10"
       fill="#68b723"
       opacity="0.75" />
    <rect
       id="rect4"
       width="2"
       height="2"
       x="7"
       y="7"
       fill="#68b723"
       opacity="0.75" />
    <rect
       id="rect4"
       width="2"
       height="2"
       x="10"
       y="4"
       fill="#68b723"
       opacity="0.75" />
    <rect
       id="rect5"
       width="2"
       height="2"
       x="10"
       y="7"
       fill="#ed5353"
       opacity="0.75" />
    <rect
       id="rect6"
       width="2"
       height="2"
       x="10"
       y="10"
       fill="#ed5353"
       opacity="0.75" />
  </g>
</svg>
