<?xml version="1.0" encoding="UTF-8" standalone="no"?>
<svg
   height="16"
   width="16"
   version="1.1"
   id="svg1"
   xmlns="http://www.w3.org/2000/svg"
   xmlns:svg="http://www.w3.org/2000/svg">
  <defs
     id="defs1">
    <style
       id="current-color-scheme"
       type="text/css">
      .ColorScheme-Text{color:#282828}
    </style>
  </defs>
  <path
     id="path1"
     class="ColorScheme-Text"
     fill="currentColor"
     opacity="0.9"
     d="M 3,1 C 1.892,1 1,1.892 1,3 v 10 c 0,1.108 0.892,2 2,2 h 10 c 1.108,0 2,-0.892 2,-2 V 3 C 15,1.892 14.108,1 13,1 Z m 1.0000025,2 h 1 v 0.94141 c 0.107,0.013 0.2202187,0.009 0.3242187,0.0332 0.225,0.049 0.4601719,0.11998 0.7011719,0.20898 0.057796,0.022187 0.084543,0.079133 0.060547,0.12891 L 5.7714869,4.95312 C 5.7468207,5.0035233 5.6790296,5.0278641 5.6191432,5.00782 5.4249621,4.9378059 5.226674,4.8797539 5.0253932,4.83399 4.879046,4.8023472 4.7298076,4.7859928 4.5800807,4.78519 c -0.166,0 -0.2756562,0.0329 -0.3476562,0.0859 -0.070566,0.045475 -0.111514,0.12514 -0.1074219,0.20899 -0.0019,0.048865 0.012529,0.096972 0.041016,0.13672 0.043672,0.052778 0.096626,0.097128 0.15625,0.13086 h 0.00195 c 0.073,0.042 0.2805157,0.13367 0.6035156,0.26367 0.4400001,0.178 0.7487344,0.35573 0.9277344,0.55273 0.177,0.193 0.2617188,0.43017 0.2617188,0.70117 0,0.376 -0.1681406,0.68921 -0.4941406,0.90821 -0.1902433,0.1215193 -0.401572,0.2063157 -0.6230469,0.25 V 9 h -1 V 8.07227 c -0.381,-0.026 -0.7387813,-0.0868 -1.0507813,-0.2168 -0.04057,-0.016715 -0.066345,-0.05157 -0.066406,-0.0898 V 6.9981 c 0.00122,-0.07178 0.088644,-0.11912 0.166018,-0.0899 0.308,0.116 0.5635781,0.19719 0.7675781,0.24219 0.208,0.047 0.3965,0.0703 0.5625,0.0703 0.198,0 0.336875,-0.0359 0.421875,-0.0879 0.086,-0.052 0.1269531,-0.11356 0.1269531,-0.22656 0,-0.057 -0.020641,-0.10058 -0.056641,-0.14258 7.9e-6,-6.666e-4 7.9e-6,-0.00133 0,-0.002 -0.054375,-0.060568 -0.1192112,-0.1108504 -0.1914062,-0.14844 -6.5e-4,-4.6e-6 -0.0013,-4.6e-6 -0.00195,0 C 4.4889384,6.5179422 4.2953184,6.4325405 4.0976615,6.35735 3.8652977,6.2719933 3.6442536,6.1585198 3.4394584,6.01946 3.2936172,5.9156532 3.169534,5.7842705 3.074224,5.63274 2.9803862,5.4738536 2.9330176,5.291823 2.9375053,5.10735 c 0,-0.366 0.1501718,-0.67072 0.4511719,-0.88672 0.1689999,-0.12 0.3773281,-0.198 0.6113281,-0.25 z M 7,9 h 4 v 1 H 7 Z" />
</svg>
