<?xml version="1.0" encoding="UTF-8" standalone="no"?>
<svg
   height="16"
   width="16"
   version="1.1"
   id="svg1"
   xmlns="http://www.w3.org/2000/svg"
   xmlns:svg="http://www.w3.org/2000/svg">
  <defs
     id="defs1">
    <style
       id="current-color-scheme"
       type="text/css">
      .ColorScheme-Text{color:#282828}
    </style>
  </defs>
  <g
     id="g1"
     class="ColorScheme-Text"
     fill="currentColor"
     opacity="0.9">
    <path
       id="path1"
       d="m 12,10 v 2 h -2 v 2 h 2 v 2 h 2 v -2 h 2 v -2 h -2 v -2 z" />
    <path
       id="path2"
       d="M 4,1 C 2.892,1 2,1.892 2,3 v 10 c 0,1.108 0.892,2 2,2 H 9 V 14 H 4 C 3.446,14 3,13.554 3,13 V 3 C 3,2.446 3.446,2 4,2 h 8 c 0.554,0 1,0.446 1,1 v 6 h 1 V 3 C 14,1.892 13.108,1 12,1 Z" />
  </g>
</svg>
