<?xml version="1.0" encoding="UTF-8" standalone="no"?>
<svg
   height="16"
   width="16"
   version="1.1"
   id="svg1"
   xmlns="http://www.w3.org/2000/svg"
   xmlns:svg="http://www.w3.org/2000/svg">
  <defs
     id="defs1">
    <style
       id="current-color-scheme"
       type="text/css">
      .ColorScheme-Text{color:#282828}
    </style>
  </defs>
  <path
     id="path1"
     class="ColorScheme-Text"
     fill="currentColor"
     opacity="0.9"
     d="m 3.9998553,1 c -0.45,1.8 -0.527,3.317 0.5,5 l 2.604,3.445 -0.166,0.297 a 0.5,0.5 0 0 1 -0.084,0.112 l -1,1 a 0.5,0.5 0 0 1 -0.354,0.146 h -1.5 c -0.81,0 -1.54,0.486 -1.85,1.234 h 0.003 c -0.31,0.75 -0.14,1.607 0.433,2.18 a 1.997,1.997 0 0 0 3.38,-1.057 c 0.006,-0.039 0.018,-0.32 0.034,-0.357 v -0.5 a 0.5,0.5 0 0 1 0.2,-0.4 l 1.783,-1.338 1.783,1.338 a 0.5,0.5 0 0 1 0.2,0.4 V 13 c 0.015,0.036 0.027,0.318 0.034,0.357 a 1.997,1.997 0 0 0 3.3789997,1.057 c 0.574,-0.573 0.744,-1.43 0.434,-2.18 h 0.002 a 1.999,1.999 0 0 0 -1.85,-1.234 h -1.5 a 0.5,0.5 0 0 1 -0.353,-0.146 l -0.9999997,-1 a 0.5,0.5 0 0 1 -0.084,-0.112 l -0.16,-0.289 L 11.499855,6 c 1.025,-1.658 0.945,-3.22 0.5,-5 L 7.9828553,7.861 Z m 3.967,8.226 h 0.018 a 0.25,0.25 0 1 1 -0.018,0 z m -3.967,2.774 c 0.547,0 1,0.454 1,1 0,0.546 -0.453,1 -1,1 -0.546,0 -1,-0.454 -1,-1 0,-0.546 0.454,-1 1,-1 z m 7.9649997,0 c 0.546,0 1,0.454 1,1 0,0.546 -0.454,1 -1,1 -0.546,0 -1,-0.454 -1,-1 0,-0.546 0.454,-1 1,-1 z" />
</svg>
