<?xml version="1.0" encoding="UTF-8" standalone="no"?>
<svg
   height="16"
   width="16"
   version="1.1"
   id="svg1"
   xmlns="http://www.w3.org/2000/svg"
   xmlns:svg="http://www.w3.org/2000/svg">
  <defs
     id="defs1">
    <style
       id="current-color-scheme"
       type="text/css">
      .ColorScheme-Text{color:#282828}
    </style>
  </defs>
  <g
     id="g1"
     class="ColorScheme-Text"
     fill="currentColor"
     opacity="0.9">
    <path
       id="path1"
       d="m 12,9 v 2 h -2 v 2 h 2 v 2 h 2 v -2 h 2 v -2 h -2 v -2 z" />
    <path
       id="path2"
       d="m 3,2 c -0.554,0 -1,0.446 -1,1 -0.554,0 -1,0.446 -1,1 v 8.5 c 0,0.831 0.669,1.5 1.5,1.5 h 6.5 v -4 h 2 v -2 h 4 v -4 c 0,-0.554 -0.446,-1 -1,-1 h -6 c 0,-0.554 -0.446,-1 -1,-1 z m 0,1 h 4 v 1 h 7 v 1 h -12 v -1 h 1 z" />
  </g>
</svg>
