<?xml version="1.0" encoding="UTF-8" standalone="no"?>
<svg
   height="16"
   width="16"
   version="1.1"
   id="svg1"
   xmlns="http://www.w3.org/2000/svg"
   xmlns:svg="http://www.w3.org/2000/svg">
  <defs
     id="defs1">
    <style
       id="current-color-scheme"
       type="text/css">
      .ColorScheme-Text{color:#282828}
    </style>
  </defs>
  <g
     id="g1"
     class="ColorScheme-Text"
     fill="currentColor"
     opacity="0.9">
    <rect
       x="1"
       y="1"
       width="2"
       height="2"
       id="rect1" />
    <rect
       x="5"
       y="1"
       width="2"
       height="2"
       id="rect2" />
    <rect
       x="1"
       y="5"
       width="2"
       height="2"
       id="rect3" />
    <rect
       x="5"
       y="5"
       width="2"
       height="2"
       id="rect4" />
    <rect
       x="1"
       y="9"
       width="2"
       height="2"
       id="rect5" />
    <rect
       x="5"
       y="9"
       width="2"
       height="2"
       id="rect6" />
    <rect
       x="1"
       y="13"
       width="2"
       height="2"
       id="rect7" />
    <rect
       x="5"
       y="13"
       width="2"
       height="2"
       id="rect8" />
    <rect
       x="9"
       y="1"
       width="2"
       height="2"
       id="rect9" />
    <rect
       x="13"
       y="1"
       width="2"
       height="2"
       id="rect10" />
    <rect
       x="9"
       y="5"
       width="2"
       height="2"
       id="rect11" />
    <rect
       x="13"
       y="5"
       width="2"
       height="2"
       id="rect12" />
    <rect
       x="9"
       y="9"
       width="2"
       height="2"
       id="rect13" />
    <rect
       x="13"
       y="9"
       width="2"
       height="2"
       id="rect14" />
    <rect
       x="9"
       y="13"
       width="2"
       height="2"
       id="rect15" />
    <rect
       x="13"
       y="13"
       width="2"
       height="2"
       id="rect16" />
  </g>
</svg>
