<?xml version="1.0" encoding="UTF-8" standalone="no"?>
<svg
   height="16"
   width="16"
   version="1.1"
   id="svg1"
   xmlns="http://www.w3.org/2000/svg"
   xmlns:svg="http://www.w3.org/2000/svg">
  <defs
     id="defs1">
    <style
       id="current-color-scheme"
       type="text/css">
      .ColorScheme-Text{color:#282828}
    </style>
  </defs>
  <g
     id="g1"
     class="ColorScheme-Text"
     fill="currentColor"
     opacity="0.9">
    <path
       id="path1"
       d="m 12,10 v 2 h -2 v 2 h 2 v 2 h 2 v -2 h 2 v -2 h -2 v -2 z" />
    <path
       id="path2"
       d="M 2.5 1 C 1.6776486 1 1 1.6776486 1 2.5 L 1 13.5 C 1 14.322351 1.6776486 15 2.5 15 L 9 15 L 9 14 L 2.5 14 C 2.2143514 14 2 13.785649 2 13.5 L 2 5 L 14 5 L 14 9 L 15 9 L 15 2.5 C 15 1.6776486 14.322351 1 13.5 1 L 2.5 1 z" />
  </g>
</svg>
