<?xml version="1.0" encoding="UTF-8" standalone="no"?>
<svg
   height="16"
   width="16"
   version="1.1"
   id="svg1"
   xmlns="http://www.w3.org/2000/svg"
   xmlns:svg="http://www.w3.org/2000/svg">
  <defs
     id="defs1">
    <style
       id="current-color-scheme"
       type="text/css">
      .ColorScheme-Text{color:#282828}
    </style>
  </defs>
  <g
     id="g1"
     class="ColorScheme-Text"
     fill="currentColor"
     opacity="0.9">
    <path
       id="path1"
       d="M 3,2 H 6 V 1 h 4 v 1 h 3 c 0.554,0 1,0.446 1,1 0,0.554 0,1 0,1 H 2 C 2,4 2,3.554 2,3 2,2.446 2.446,2 3,2 Z" />
    <path
       id="path2"
       d="m 3,5 v 8.5 C 3,14.331 3.669,15 4.5,15 h 7 C 12.331,15 13,14.331 13,13.5 V 5 Z m 3,2 h 1 v 6 H 6 Z m 3,0 h 1 v 6 H 9 Z" />
  </g>
</svg>
